<?xml version="1.0" encoding="iso-8859-1"?>
<!-- Uploaded to: SVG Repo, www.svgrepo.com, Generator: SVG Repo Mixer Tools -->
<svg height="24" width="24" version="1.1" id="Capa_1" xmlns="http://www.w3.org/2000/svg" xmlns:xlink="http://www.w3.org/1999/xlink" 
	 viewBox="0 0 15.575 15.575" xml:space="preserve">
<g>
	<g>
		<path style="fill:currentColor;" d="M15.183,2.909c0.221-0.015,0.392-0.197,0.392-0.418V1.187c0-0.231-0.188-0.419-0.419-0.419h-1.524
			c-0.231,0-0.419,0.188-0.419,0.419c0,0.418-0.401,0.759-0.896,0.759s-0.896-0.34-0.896-0.759c0-0.231-0.187-0.419-0.418-0.419
			H9.014c-0.205,0-0.381,0.148-0.413,0.351C8.538,1.493,8.16,1.774,7.718,1.774S6.897,1.492,6.835,1.119
			C6.802,0.916,6.627,0.768,6.422,0.768H4.396c-0.205,0-0.38,0.148-0.413,0.351C3.922,1.493,3.542,1.775,3.1,1.775
			c-0.441,0-0.821-0.282-0.882-0.655C2.185,0.917,2.01,0.768,1.805,0.768H0.419c-0.231,0-0.418,0.188-0.418,0.419v1.304
			c0,0.115,0.047,0.225,0.13,0.304c0.083,0.079,0.197,0.121,0.31,0.114c0.009,0,0.065-0.006,0.074-0.008
			c0.494,0,0.896,0.341,0.896,0.759s-0.4,0.758-0.899,0.758c-0.001,0-0.002,0-0.003,0C0.502,4.417,0.458,4.411,0.451,4.411
			C0.337,4.404,0.22,4.443,0.134,4.522S0,4.712,0,4.829v1.782c0,0.221,0.171,0.403,0.391,0.418c0.465,0.03,0.828,0.36,0.828,0.752
			c0,0.39-0.363,0.72-0.828,0.75C0.171,8.546,0,8.727,0,8.949v1.797c0,0.221,0.171,0.403,0.391,0.418
			c0.465,0.03,0.828,0.36,0.828,0.752c0,0.39-0.363,0.72-0.828,0.75C0.171,12.681,0,12.863,0,13.083v1.305
			c0,0.231,0.187,0.419,0.418,0.419h1.916c0.002,0,0.006,0,0.008,0c0.231,0,0.419-0.188,0.419-0.419
			c0-0.033-0.004-0.065-0.011-0.097c0.032-0.395,0.42-0.707,0.894-0.707c0.486,0,0.883,0.33,0.896,0.739
			c-0.002,0.019-0.004,0.041-0.004,0.054c-0.003,0.112,0.04,0.222,0.118,0.303c0.079,0.081,0.188,0.127,0.3,0.127h1.99
			c0.211,0,0.39-0.158,0.415-0.368c0.048-0.39,0.428-0.683,0.885-0.683s0.838,0.293,0.885,0.683c0.025,0.21,0.204,0.368,0.416,0.368
			h2.015c0.212,0,0.391-0.158,0.416-0.368c0.047-0.39,0.428-0.683,0.885-0.683s0.837,0.293,0.885,0.683
			c0.025,0.21,0.204,0.368,0.416,0.368h0.994c0.231,0,0.419-0.188,0.419-0.419v-1.305c0-0.116-0.049-0.228-0.135-0.307
			c-0.085-0.079-0.199-0.117-0.316-0.11c-0.007,0-0.057,0.007-0.063,0.008c-0.494,0-0.896-0.341-0.896-0.759
			s0.399-0.758,0.897-0.758c0.001,0,0.003,0,0.003,0c0.01,0.001,0.061,0.006,0.069,0.006c0.125,0.007,0.227-0.035,0.311-0.114
			c0.083-0.079,0.13-0.188,0.13-0.304V8.964c0-0.221-0.172-0.403-0.392-0.418c-0.464-0.03-0.828-0.36-0.828-0.75
			c0-0.392,0.364-0.722,0.828-0.752c0.221-0.015,0.392-0.197,0.392-0.418V4.828c0-0.221-0.172-0.403-0.392-0.418
			c-0.464-0.03-0.828-0.36-0.828-0.751S14.719,2.939,15.183,2.909z M13.166,12.538H2.462v-9.5h10.704
			C13.166,3.038,13.166,12.538,13.166,12.538z"/>
		<path style="fill:currentColor;" d="M5.064,8.781H6.77l0.001,1.705c0,0.237,0.191,0.43,0.429,0.43h1.126c0.238,0,0.43-0.192,0.43-0.43
			V8.781l1.706-0.001c0.236,0.001,0.429-0.192,0.429-0.429V7.224c0.001-0.236-0.192-0.429-0.429-0.429H8.756V5.089
			c0-0.237-0.191-0.43-0.43-0.43L7.2,4.66C6.963,4.658,6.771,4.851,6.771,5.089v1.706H5.065c-0.237,0-0.429,0.192-0.43,0.429v1.127
			C4.635,8.588,4.827,8.78,5.064,8.781z"/>
	</g>
</g>
</svg>