<svg width="20" height="21" viewBox="0 0 20 21" fill="none" xmlns="http://www.w3.org/2000/svg">
<g id="Frame 33">
<path id="Vector" d="M4.96195 2.94923C4.72762 3.18364 4.59597 3.50153 4.59597 3.83298C4.59597 4.16444 4.72762 4.48232 4.96195 4.71673L11.1495 10.9042L4.96195 17.0917C4.73426 17.3275 4.60826 17.6432 4.61111 17.971C4.61396 18.2987 4.74542 18.6122 4.97718 18.844C5.20894 19.0758 5.52246 19.2072 5.8502 19.2101C6.17795 19.2129 6.4937 19.0869 6.72945 18.8592L13.8007 11.788C14.035 11.5536 14.1667 11.2357 14.1667 10.9042C14.1667 10.5728 14.035 10.2549 13.8007 10.0205L6.72945 2.94923C6.49504 2.7149 6.17716 2.58325 5.8457 2.58325C5.51425 2.58325 5.19636 2.7149 4.96195 2.94923Z" fill="currentColor"/>
</g>
</svg>
